# xmcd
#
# Track frame offsets: 
#        150
#        11370
#        23465
#        35355
#        46707
#        56477
#        70322
#        84025
#        96372
#        109980
#        121755
#        132360
#        145432
#        156392
#        167715
#        177085
#        188120
#        198587
#        208900
#
# Disc length: 2949 seconds
#
# Revision: 4
# Processed by: cddbd v1.5.2PL0 Copyright (c) Steve Scherf et al.
# Submitted via: ExactAudioCopy v1.1
#
DISCID=000b8313
DTITLE=Various Artist - Texas Guitar Killers - Disc 2
DYEAR=1995
DGENRE=Blues
TTITLE0=T-Bone Walker - The Hustle Is On (mono)
TTITLE1=T-Bone Walker - Baby Broke My Heart (mono)
TTITLE2=T-Bone Walker - Evil Hearted Woman (mono)
TTITLE3=T-Bone Walker - No Reason (mono)
TTITLE4=T-Bone Walker - Look Me In The Eye (mono)
TTITLE5=T-Bone Walker - Too Lazy (mono)
TTITLE6=Pee Wee Crayton - When It Rains, It Pours (mono)
TTITLE7=Pee Wee Crayton - Daybreak (mono)
TTITLE8=Lowell Fulson - Blues Don't Leave Me (mono)
TTITLE9=Lowell Fulson - Blues Never Fail (mono)
TTITLE10=Lowell Fulson - Chuck With The Boys (mono)
TTITLE11=Lowell Fulson - You Gotta Reap (mono)
TTITLE12=Smokey Hogg - When I've Been Drinking (mono)
TTITLE13=Smokey Hogg - I Gotta Ride (mono)
TTITLE14=Smokey Hogg - Tear Me Down (mono)
TTITLE15=Smokey Hogg - Train Whistle (mono)
TTITLE16=Smokey Hogg - My Baby's Gone (mono)
TTITLE17=Smokey Hogg - Peace Of Mind (mono)
TTITLE18=Smokey Hogg - Oo-Oo-Wee (mono)
EXTD=
EXTT0=
EXTT1=
EXTT2=
EXTT3=
EXTT4=
EXTT5=
EXTT6=
EXTT7=
EXTT8=
EXTT9=
EXTT10=
EXTT11=
EXTT12=
EXTT13=
EXTT14=
EXTT15=
EXTT16=
EXTT17=
EXTT18=
PLAYORDER=
